<svg id="Layer_1" data-name="Layer 1" xmlns="http://www.w3.org/2000/svg" viewBox="0 0 1920 1080"><defs><style>.cls-1{fill:#e7ff5c;}.cls-2{fill:none;stroke:#000;stroke-miterlimit:10;stroke-width:0.25px;}.cls-3{font-size:484.63px;}.cls-3,.cls-4{font-family:BaskOldFace, Baskerville Old Face;}.cls-4{font-size:438.39px;}</style></defs><rect class="cls-1" width="1920" height="1080"/><path class="cls-2" d="M873.79,762.52a784.07,784.07,0,0,1,21.92-197.26c15.85-65.33,54.74-188.4,84.93-184.93,26.5,3,37,102.53,45.44,181.73,13.43,126.72,2.92,200.86,16.2,203.2,4.18.74,16.17-4.66,64.53-156.08,27.66-86.61,47.36-158.81,60.13-208.3"/><path class="cls-2" d="M1135.43,587.18q180.48-116,184.93-109.59,4.59,6.59-176.71,142.46"/><path class="cls-2" d="M908,568l149.31-12.33"/><path class="cls-2" d="M1130.7,593.28q175.1,124,170.81,130.51-4.4,6.72-198.23-110.59"/><path class="cls-2" d="M972.42,762.52C1113.13,885,1288.2,932.77,1401.19,870.74c197.75-108.58,173.75-536.28-13.7-642.47-105.07-59.52-235.63-3.36-265.76,9.59-276.66,119-386.8,538.74-282.19,637,62.65,58.83,251.42,48.52,869.87-375.34"/><text class="cls-3" transform="translate(592.45 551.05) scale(1.14 1)">Avi</text><text class="cls-4" transform="translate(403.01 849.28) scale(1.04 1)">Kaura</text></svg>